<?xml version="1.0" encoding="utf-8"?>
<!-- Generator: Adobe Illustrator 21.1.0, SVG Export Plug-In . SVG Version: 6.00 Build 0)  -->
<svg version="1.1" id="Icons" xmlns="http://www.w3.org/2000/svg" xmlns:xlink="http://www.w3.org/1999/xlink" x="0px" y="0px"
	 viewBox="0 0 48 48" style="enable-background:new 0 0 48 48;" xml:space="preserve">
<style type="text/css">
	.st0{opacity:0.15;fill:#45413C;}
	.st1{fill:#FFE500;}
	.st2{fill:#EBCB00;}
	.st3{fill:none;stroke:#45413C;stroke-linecap:round;stroke-linejoin:round;stroke-miterlimit:10;}
	.st4{fill:#FFAA54;}
	.st5{fill:#FF8A14;}
	.st6{fill:#FFB0CA;stroke:#45413C;stroke-linecap:round;stroke-linejoin:round;stroke-miterlimit:10;}
	.st7{fill:#FF87AF;stroke:#45413C;stroke-linecap:round;stroke-linejoin:round;stroke-miterlimit:10;}
	.st8{fill:#FFCC99;}
	.st9{fill:#FFFFFF;}
	.st10{fill:#F0F0F0;}
	.st11{fill:#BF8256;}
	.st12{fill:#915E3A;}
	.st13{fill:#DEA47A;}
	.st14{fill:#F0D5A8;}
	.st15{fill:#DEBB7E;}
	.st16{fill:#F7E5C6;}
	.st17{fill:#FF8A14;stroke:#45413C;stroke-linecap:round;stroke-linejoin:round;stroke-miterlimit:10;}
	.st18{fill:#FFF5E3;}
	.st19{fill:#FFF48C;}
	.st20{fill:#FFFACF;}
	.st21{fill:#FFFCE5;}
	.st22{fill:#FF87AF;}
	.st23{fill:#FFB0CA;}
	.st24{fill:#FFE500;stroke:#45413C;stroke-linecap:round;stroke-linejoin:round;stroke-miterlimit:10;}
	.st25{fill:#9CEB60;stroke:#45413C;stroke-linecap:round;stroke-linejoin:round;stroke-miterlimit:10;}
	.st26{fill:#FFFACF;stroke:#45413C;stroke-linecap:round;stroke-linejoin:round;stroke-miterlimit:10;}
	.st27{fill:#00F5BC;stroke:#45413C;stroke-linecap:round;stroke-linejoin:round;stroke-miterlimit:10;}
	.st28{fill:#BF8256;stroke:#45413C;stroke-linecap:round;stroke-linejoin:round;stroke-miterlimit:10;}
	.st29{fill:#FFE3CF;stroke:#45413C;stroke-linecap:round;stroke-linejoin:round;stroke-miterlimit:10;}
	.st30{fill:#FF6242;}
	.st31{fill:#FF866E;}
	.st32{fill:none;stroke:#E04122;stroke-linecap:round;stroke-linejoin:round;stroke-miterlimit:10;}
	.st33{fill:#FFFEF2;stroke:#45413C;stroke-linecap:round;stroke-linejoin:round;stroke-miterlimit:10;}
	.st34{fill:#FF6242;stroke:#45413C;stroke-linecap:round;stroke-linejoin:round;stroke-miterlimit:10;}
	.st35{fill:#FFA694;}
	.st36{fill:#FFFFFF;stroke:#45413C;stroke-linecap:round;stroke-linejoin:round;stroke-miterlimit:10;}
	.st37{fill:#FFFEF2;}
	.st38{fill:#FF6196;}
	.st39{fill:#B89558;}
	.st40{fill:none;stroke:#915E3A;stroke-linecap:round;stroke-linejoin:round;stroke-miterlimit:10;}
	.st41{fill:#DEBB7E;stroke:#45413C;stroke-linecap:round;stroke-linejoin:round;stroke-miterlimit:10;}
	.st42{fill:#6DD627;stroke:#45413C;stroke-linecap:round;stroke-linejoin:round;stroke-miterlimit:10;}
	.st43{fill:#E5F8FF;}
	.st44{fill:#E8F4FA;}
	.st45{fill:#E8F4FA;stroke:#45413C;stroke-linecap:round;stroke-linejoin:round;stroke-miterlimit:10;}
	.st46{fill:#FFCCDD;}
	.st47{fill:#E5F8FF;stroke:#45413C;stroke-linecap:round;stroke-linejoin:round;stroke-miterlimit:10;}
	.st48{fill:#00B8F0;stroke:#45413C;stroke-linecap:round;stroke-linejoin:round;stroke-miterlimit:10;}
	.st49{fill:#00B8F0;}
	.st50{fill:#4ACFFF;}
	.st51{fill:#E04122;}
	.st52{fill:#E04122;stroke:#45413C;stroke-linecap:round;stroke-linejoin:round;stroke-miterlimit:10;}
	.st53{fill:#87898C;}
	.st54{fill:#BDBEC0;}
	.st55{fill:#656769;}
	.st56{fill:#525252;}
	.st57{fill:#FFF48C;stroke:#45413C;stroke-linecap:round;stroke-linejoin:round;stroke-miterlimit:10;}
	.st58{fill:#6DD627;}
	.st59{fill:#EB6D00;}
	.st60{fill:#46B000;}
	.st61{fill:#80DDFF;}
	.st62{fill:#DAEDF7;}
	.st63{fill:#BF8DF2;stroke:#45413C;stroke-linecap:round;stroke-linejoin:round;stroke-miterlimit:10;}
	.st64{fill:#9F5AE5;stroke:#45413C;stroke-linecap:round;stroke-linejoin:round;stroke-miterlimit:10;}
	.st65{fill:#C8FFA1;}
	.st66{fill:#E4FFD1;}
	.st67{fill:#9CEB60;}
	.st68{fill:#E5FEFF;}
	.st69{fill:#B8ECFF;}
	.st70{fill:#E0E0E0;stroke:#45413C;stroke-linecap:round;stroke-linejoin:round;stroke-miterlimit:10;}
	.st71{fill:#E0E0E0;}
	.st72{fill:none;stroke:#4F4B45;stroke-linejoin:round;stroke-miterlimit:10;}
	.st73{fill:none;stroke:#4F4B45;stroke-linecap:round;stroke-linejoin:round;stroke-miterlimit:10;}
	.st74{fill:#E0366F;stroke:#45413C;stroke-linecap:round;stroke-linejoin:round;stroke-miterlimit:10;}
	.st75{fill:none;stroke:#45413C;stroke-miterlimit:10;}
	.st76{fill:#FF866E;stroke:#45413C;stroke-linecap:round;stroke-linejoin:round;stroke-miterlimit:10;}
	.st77{fill:#45413C;stroke:#45413C;stroke-linecap:round;stroke-linejoin:round;stroke-miterlimit:10;}
	.st78{fill:#9F5AE5;}
	.st79{fill:#803EC2;}
	.st80{fill:#803EC2;stroke:#45413C;stroke-linecap:round;stroke-linejoin:round;stroke-miterlimit:10;}
	.st81{fill:#BF8DF2;}
	.st82{fill:#FFAA54;stroke:#45413C;stroke-linecap:round;stroke-linejoin:round;stroke-miterlimit:10;}
	.st83{fill:none;stroke:#45413C;stroke-linejoin:round;stroke-miterlimit:10;}
	.st84{fill:#FFCCDD;stroke:#45413C;stroke-linecap:round;stroke-linejoin:round;stroke-miterlimit:10;}
	.st85{fill:#FF6196;stroke:#45413C;stroke-linecap:round;stroke-linejoin:round;stroke-miterlimit:10;}
	.st86{fill:#FFE5EE;}
	.st87{fill:#F7E5C6;stroke:#45413C;stroke-linecap:round;stroke-linejoin:round;stroke-miterlimit:10;}
	.st88{fill:#E5FFF9;}
	.st89{fill:none;stroke:#45413C;stroke-width:1.0064;stroke-linecap:round;stroke-linejoin:round;stroke-miterlimit:10;}
	.st90{fill:#4AEFF7;}
	.st91{fill:#A6FBFF;}
	.st92{fill:#E5FEFF;stroke:#45413C;stroke-linecap:round;stroke-linejoin:round;stroke-miterlimit:10;}
	.st93{fill:#46B000;stroke:#45413C;stroke-linecap:round;stroke-linejoin:round;stroke-miterlimit:10;}
	.st94{fill:#FFFFFF;stroke:#45413C;stroke-linejoin:round;stroke-miterlimit:10;}
	.st95{fill:#FFFFFF;stroke:#45413C;stroke-miterlimit:10;}
	.st96{fill:#009FD9;}
	.st97{fill:#00DFEB;}
	.st98{fill:#C0DCEB;stroke:#45413C;stroke-linecap:round;stroke-linejoin:round;stroke-miterlimit:10;}
	.st99{fill:#00DFEB;stroke:#45413C;stroke-linecap:round;stroke-linejoin:round;stroke-miterlimit:10;}
	.st100{fill:#FFE5EE;stroke:#45413C;stroke-linecap:round;stroke-linejoin:round;stroke-miterlimit:10;}
	.st101{fill:#8CA4B8;}
	.st102{fill:#ADC4D9;}
	.st103{fill:#656769;stroke:#45413C;stroke-linecap:round;stroke-linejoin:round;stroke-miterlimit:10;}
	.st104{fill:#F0F0F0;stroke:#45413C;stroke-linecap:round;stroke-linejoin:round;stroke-miterlimit:10;}
	.st105{fill:#C0DCEB;}
	.st106{fill:#45413C;}
	.st107{fill:#FFCABF;}
	.st108{fill:#87898C;stroke:#45413C;stroke-linecap:round;stroke-linejoin:round;stroke-miterlimit:10;}
	.st109{fill:#EBCB00;stroke:#45413C;stroke-linecap:round;stroke-linejoin:round;stroke-miterlimit:10;}
</style>
<g id="XMLID_14291_">
	<ellipse id="XMLID_14309_" class="st0" cx="24" cy="45.3" rx="11.2" ry="1.7"/>
	<g id="XMLID_14292_">
		<path id="XMLID_14308_" class="st48" d="M33.1,43.4c-0.6-1.1-3.3-1.9-6.9-2.2c-0.5,0-0.8-0.4-0.8-0.9v-7.1h-2.6v7.1
			c0,0.5-0.4,0.8-0.8,0.9c-3.6,0.2-6.4,1.1-6.9,2.2c-0.1,0.2,0,0.5,0.2,0.6c0.9,0.4,3.6,1.6,8.9,1.6s8-1.1,8.9-1.6
			C33.1,43.8,33.2,43.6,33.1,43.4z"/>
		<g id="XMLID_14302_">
			<path id="XMLID_14307_" class="st49" d="M31.9,9.7c0-1-3.5-1.7-7.9-1.7s-7.9,0.8-7.9,1.7l-1.3,16.2c0,5.1,4.1,9.2,9.2,9.2
				s9.2-4.1,9.2-9.2L31.9,9.7z"/>
			<path id="XMLID_14306_" class="st50" d="M32.2,13.7l-0.3-4c0-1-3.5-1.7-7.9-1.7s-7.9,0.8-7.9,1.7l-1.3,16.2c0,1.5,0.4,3,1,4.2
				c0,0,5.5-2.5,9.9-7.3S32.2,13.7,32.2,13.7z"/>
			<ellipse id="XMLID_14305_" class="st49" cx="24" cy="9.7" rx="7.9" ry="1.7"/>
			<path id="XMLID_14304_" class="st3" d="M31.9,9.7c0-1-3.5-1.7-7.9-1.7s-7.9,0.8-7.9,1.7l-1.3,16.2c0,5.1,4.1,9.2,9.2,9.2
				s9.2-4.1,9.2-9.2L31.9,9.7z"/>
			<path id="XMLID_14303_" class="st3" d="M31.9,9.7c0,1-3.5,1.7-7.9,1.7s-7.9-0.8-7.9-1.7"/>
		</g>
		<path id="XMLID_14301_" class="st42" d="M12.5,12.2c-0.5,0.3-1.1,0.1-1.3-0.4c-1-2.5-0.1-5.4,2.3-6.9c2.4-1.5,5.4-1,7.2,1
			c0.4,0.4,0.2,1-0.2,1.3L12.5,12.2z"/>
		<g id="XMLID_14294_">
			<path id="XMLID_14300_" class="st5" d="M17.9,16.2L17,25.8c0,3.9,3.1,7,7,7s7-3.1,7-7l-0.9-9.6H17.9z"/>
			<path id="XMLID_14299_" class="st30" d="M24,25.8c-3,0-5.6-0.4-6.9-0.9L17,25.8c0,3.9,3.1,7,7,7s7-3.1,7-7l-0.1-0.9
				C29.6,25.5,27,25.8,24,25.8z"/>
			<ellipse id="XMLID_14298_" class="st5" cx="24" cy="16.2" rx="6.1" ry="0.9"/>
			<path id="XMLID_14297_" class="st63" d="M26.2,17.5h2.6v-6.5c-0.8,0.1-1.7,0.2-2.6,0.3V17.5z"/>
			<path id="XMLID_14296_" class="st4" d="M30.1,16.2c0,0.5-2.7,0.9-6.1,0.9s-6.1-0.4-6.1-0.9L17,25.8c0,1.2,0.3,2.2,0.8,3.2
				c2-1.1,5.2-3.2,8-6.3c1.9-2.1,3.4-4.1,4.4-5.7L30.1,16.2z"/>
			<path id="XMLID_14295_" class="st31" d="M17.1,24.9L17,25.8c0,1.2,0.3,2.2,0.8,3.2c1.2-0.7,3-1.8,4.7-3.2
				C20.2,25.7,18.2,25.4,17.1,24.9z"/>
		</g>
		<path id="XMLID_14293_" class="st64" d="M29.8,6.3l3.4-4L31,0.5l-3.9,4.9c-0.6,0.8-0.9,1.7-0.9,2.7v3.2c1-0.1,1.8-0.2,2.6-0.3v-2
			C28.8,8.1,29.2,7.1,29.8,6.3z"/>
	</g>
</g>
</svg>
