<svg id="Icons" xmlns="http://www.w3.org/2000/svg" viewBox="0 0 38.9 47"><ellipse cx="19.3" cy="45.3" rx="11.2" ry="1.7" style="fill:#45413c;opacity:0.15000000596046448;isolation:isolate"/><path d="M33.1,43.4c-.6-1.1-3.3-1.9-6.9-2.2a.82.82,0,0,1-.8-.9V33.2H22.8v7.1a1,1,0,0,1-.8.9c-3.6.2-6.4,1.1-6.9,2.2a.48.48,0,0,0,.2.6c.9.4,3.6,1.6,8.9,1.6s8-1.1,8.9-1.6C33.1,43.8,33.2,43.6,33.1,43.4Z" transform="translate(-4.7)" style="fill:#00b8f0;stroke:#45413c;stroke-linecap:round;stroke-linejoin:round"/><path d="M31.9,9.7c0-1-3.5-1.7-7.9-1.7s-7.9.8-7.9,1.7L14.8,25.9a9.2,9.2,0,0,0,18.4,0Z" transform="translate(-4.7)" style="fill:#00b8f0"/><path d="M32.2,13.7l-.3-4c0-1-3.5-1.7-7.9-1.7s-7.9.8-7.9,1.7L14.8,25.9a9.63,9.63,0,0,0,1,4.2,34.49,34.49,0,0,0,9.9-7.3A43,43,0,0,0,32.2,13.7Z" transform="translate(-4.7)" style="fill:#4acfff"/><ellipse cx="19.3" cy="9.7" rx="7.9" ry="1.7" style="fill:#00b8f0"/><path d="M31.9,9.7c0-1-3.5-1.7-7.9-1.7s-7.9.8-7.9,1.7L14.8,25.9a9.2,9.2,0,0,0,18.4,0Z" transform="translate(-4.7)" style="fill:none;stroke:#45413c;stroke-linecap:round;stroke-linejoin:round"/><path d="M31.9,9.7c0,1-3.5,1.7-7.9,1.7s-7.9-.8-7.9-1.7" transform="translate(-4.7)" style="fill:none;stroke:#45413c;stroke-linecap:round;stroke-linejoin:round"/><path d="M12.5,12.2a.88.88,0,0,1-1.3-.4,5.69,5.69,0,0,1,9.5-5.9.87.87,0,0,1-.2,1.3Z" transform="translate(-4.7)" style="fill:#6dd627;stroke:#45413c;stroke-linecap:round;stroke-linejoin:round"/><path d="M17.9,16.2,17,25.8a7,7,0,1,0,14,0l-.9-9.6Z" transform="translate(-4.7)" style="fill:#ff8a14"/><path d="M24,25.8a22,22,0,0,1-6.9-.9l-.1.9a7,7,0,1,0,14,0l-.1-.9A19.37,19.37,0,0,1,24,25.8Z" transform="translate(-4.7)" style="fill:#ff6242"/><ellipse cx="19.3" cy="16.2" rx="6.1" ry="0.9" style="fill:#ff8a14"/><path d="M26.2,17.5h2.6V11l-2.6.3Z" transform="translate(-4.7)" style="fill:#bf8df2;stroke:#45413c;stroke-linecap:round;stroke-linejoin:round"/><path d="M30.1,16.2c0,.5-2.7.9-6.1.9s-6.1-.4-6.1-.9L17,25.8a6.9,6.9,0,0,0,.8,3.2,31.72,31.72,0,0,0,8-6.3A42.14,42.14,0,0,0,30.2,17Z" transform="translate(-4.7)" style="fill:#ffaa54"/><path d="M17.1,24.9l-.1.9a6.9,6.9,0,0,0,.8,3.2,35.9,35.9,0,0,0,4.7-3.2A16.6,16.6,0,0,1,17.1,24.9Z" transform="translate(-4.7)" style="fill:#ff866e"/><path d="M29.8,6.3l3.4-4L31,.5,27.1,5.4a4.39,4.39,0,0,0-.9,2.7v3.2c1-.1,1.8-.2,2.6-.3V9A4.73,4.73,0,0,1,29.8,6.3Z" transform="translate(-4.7)" style="fill:#9f5ae5;stroke:#45413c;stroke-linecap:round;stroke-linejoin:round"/><path d="M10.69,25.31a3.19,3.19,0,0,1-1,1.82,2.9,2.9,0,0,1-1.87.64,2.78,2.78,0,0,1-1.62-.5,2.8,2.8,0,0,1-1-1L5,25.86a2,2,0,0,1-.12-.46,16.28,16.28,0,0,1-.08-2,16.36,16.36,0,0,1,.08-2,2.47,2.47,0,0,1,.28-.81,2.84,2.84,0,0,1,1-1.06,2.79,2.79,0,0,1,1.63-.48,2.78,2.78,0,0,1,2,.73,3.29,3.29,0,0,1,.95,1.8H9.36a1.88,1.88,0,0,0-.56-.88,1.62,1.62,0,0,0-1-.36,1.74,1.74,0,0,0-.76.18A1.62,1.62,0,0,0,6.5,21a1.46,1.46,0,0,0-.33.71,10.71,10.71,0,0,0-.09,1.72,10.39,10.39,0,0,0,.09,1.71,1.42,1.42,0,0,0,.33.72,1.38,1.38,0,0,0,.52.43,1.43,1.43,0,0,0,.76.2,1.68,1.68,0,0,0,1.58-1.17Z" transform="translate(-4.7)" style="fill:#fff;stroke:#000;stroke-miterlimit:10;stroke-width:0.25px"/><path d="M11.38,24.65a5.52,5.52,0,0,1,.16-1.48,2,2,0,0,1,.49-.85,2.25,2.25,0,0,1,.68-.54,2.21,2.21,0,0,1,1.1-.24,2.28,2.28,0,0,1,1.13.24,2,2,0,0,1,.66.54,1.92,1.92,0,0,1,.5.85,6.2,6.2,0,0,1,.14,1.48,5.9,5.9,0,0,1-.14,1.46,2.2,2.2,0,0,1-.5.88,2.38,2.38,0,0,1-.28.26,1.2,1.2,0,0,1-.38.25,2.3,2.3,0,0,1-1.13.27A2.48,2.48,0,0,1,12,27a2.3,2.3,0,0,1-.49-.88A5.3,5.3,0,0,1,11.38,24.65Zm3.68,0a5.31,5.31,0,0,0-.06-.95,1.18,1.18,0,0,0-.23-.51.89.89,0,0,0-.39-.32,1.27,1.27,0,0,0-1.12,0,1,1,0,0,0-.4.32,1.3,1.3,0,0,0-.22.51,4.29,4.29,0,0,0-.07.94,4.25,4.25,0,0,0,.07.93,1.39,1.39,0,0,0,.22.53,1.46,1.46,0,0,0,.4.31A1.18,1.18,0,0,0,15,25.58,5.07,5.07,0,0,0,15.06,24.66Z" transform="translate(-4.7)" style="fill:#fff;stroke:#000;stroke-miterlimit:10;stroke-width:0.25px"/><path d="M22,26.72a3.12,3.12,0,0,1-.91.74,2.46,2.46,0,0,1-1.2.31A2.59,2.59,0,0,1,18.07,27a3.07,3.07,0,0,1-.84-2.37,3.11,3.11,0,0,1,.84-2.4,2.53,2.53,0,0,1,1.83-.72,2.49,2.49,0,0,1,1.21.29,2.87,2.87,0,0,1,.9.77l-.87.8a1.47,1.47,0,0,0-1.2-.65c-1,0-1.52.62-1.53,1.91s.53,1.91,1.53,1.89a1.44,1.44,0,0,0,1.2-.64Z" transform="translate(-4.7)" style="fill:#fff;stroke:#000;stroke-miterlimit:10;stroke-width:0.25px"/><path d="M23,19.15h1.19v5.32h0l2.27-2.86H27.9l-2,2.38,2.31,3.71H26.69l-1.57-2.85-.93,1.09V27.7H23Z" transform="translate(-4.7)" style="fill:#fff;stroke:#000;stroke-miterlimit:10;stroke-width:0.25px"/><path d="M29.3,19.76h1.19v1.85h.86v.94h-.86V26.1q0,.46.42.45h.44V27.7h-.62a1.39,1.39,0,0,1-1-.4,1.45,1.45,0,0,1-.41-1.1V22.55h-.59v-.94h.59Z" transform="translate(-4.7)" style="fill:#fff;stroke:#000;stroke-miterlimit:10;stroke-width:0.25px"/><path d="M35.66,27.16h0a1,1,0,0,1-.51.45,2.38,2.38,0,0,1-.94.16,2.11,2.11,0,0,1-1.52-.54,1.72,1.72,0,0,1-.57-1.32,1.77,1.77,0,0,1,.49-1.27A1.9,1.9,0,0,1,34,24.11h1.64v-.64c0-.54-.4-.8-1.21-.79a2.17,2.17,0,0,0-.7.1.9.9,0,0,0-.42.38l-.93-.74a2.28,2.28,0,0,1,2-.88,3.05,3.05,0,0,1,1.78.43,1.8,1.8,0,0,1,.67,1.57V27.7H35.66Zm0-2H34.24c-.69,0-1,.26-1,.73a.65.65,0,0,0,.26.53,1.23,1.23,0,0,0,.85.24,2,2,0,0,0,1.05-.18c.19-.13.28-.43.28-.88Z" transform="translate(-4.7)" style="fill:#fff;stroke:#000;stroke-miterlimit:10;stroke-width:0.25px"/><path d="M38.6,19.15h1.18v1.22H38.6Zm0,2.46h1.18V27.7H38.6Z" transform="translate(-4.7)" style="fill:#fff;stroke:#000;stroke-miterlimit:10;stroke-width:0.25px"/><path d="M41.44,19.15h1.18v7q0,.42.45.42h.41V27.7H43a1.66,1.66,0,0,1-1.06-.34,1.32,1.32,0,0,1-.45-1.14Z" transform="translate(-4.7)" style="fill:#fff;stroke:#000;stroke-miterlimit:10;stroke-width:0.25px"/><path d="M9,33.55h1.18l2.38,5.57,2.32-5.57H16V42.1H14.77V36.77h0L13,40.87H12l-1.73-4.1h0V42.1H9Z" transform="translate(-4.7)" style="fill:#fff;stroke:#000;stroke-miterlimit:10;stroke-width:0.25px"/><path d="M21,41.56h0a1,1,0,0,1-.51.45,2.21,2.21,0,0,1-.94.16A2.13,2.13,0,0,1,18,41.63a1.74,1.74,0,0,1-.56-1.32A1.73,1.73,0,0,1,18,39a1.89,1.89,0,0,1,1.43-.53H21v-.64c0-.54-.4-.8-1.21-.79a2.12,2.12,0,0,0-.7.1.82.82,0,0,0-.42.38l-.93-.74a2.26,2.26,0,0,1,2-.88,3,3,0,0,1,1.77.43,1.79,1.79,0,0,1,.68,1.57V42.1H21Zm0-2H19.61c-.69,0-1,.26-1,.73a.66.66,0,0,0,.27.53,1.22,1.22,0,0,0,.85.24,2,2,0,0,0,1.05-.18A1.07,1.07,0,0,0,21,40Z" transform="translate(-4.7)" style="fill:#fff;stroke:#000;stroke-miterlimit:10;stroke-width:0.25px"/><path d="M23.94,33.55h1.18v5.32h0L27.41,36h1.42l-2,2.38,2.31,3.71H27.62l-1.56-2.85-.94,1.09V42.1H23.94Z" transform="translate(-4.7)" style="fill:#fff;stroke:#000;stroke-miterlimit:10;stroke-width:0.25px"/><path d="M30.91,39.52a1.44,1.44,0,0,0,.41,1.11,1.35,1.35,0,0,0,1,.39,1.76,1.76,0,0,0,1.29-.59l.86.75a2.75,2.75,0,0,1-2.12,1,3.09,3.09,0,0,1-.91-.14,2.44,2.44,0,0,1-.43-.21,1.92,1.92,0,0,1-.42-.28,2.31,2.31,0,0,1-.6-.94,3.86,3.86,0,0,1-.26-1.53,4.32,4.32,0,0,1,.22-1.5,2.78,2.78,0,0,1,.57-1,2,2,0,0,1,.79-.51,2.33,2.33,0,0,1,.85-.16,2.43,2.43,0,0,1,1.71.68,2.57,2.57,0,0,1,.72,1.89v1Zm2.49-1A1.55,1.55,0,0,0,33,37.43a1.17,1.17,0,0,0-.87-.35,1.19,1.19,0,0,0-.88.35,1.76,1.76,0,0,0-.37,1.08Z" transform="translate(-4.7)" style="fill:#fff;stroke:#000;stroke-miterlimit:10;stroke-width:0.25px"/><path d="M36,36h1.19v.65h0a1.88,1.88,0,0,1,1.53-.72A1.9,1.9,0,0,1,40,36.4l-.86,1.06a1.23,1.23,0,0,0-.78-.3,1.12,1.12,0,0,0-.78.3,1.19,1.19,0,0,0-.37,1V42.1H36Z" transform="translate(-4.7)" style="fill:#fff;stroke:#000;stroke-miterlimit:10;stroke-width:0.25px"/></svg>