<svg id="Icons" xmlns="http://www.w3.org/2000/svg" viewBox="0 0 74.04 47"><path d="M33.1,43.4c-.6-1.1-3.3-1.9-6.9-2.2a.82.82,0,0,1-.8-.9V33.2H22.8v7.1a1,1,0,0,1-.8.9c-3.6.2-6.4,1.1-6.9,2.2a.48.48,0,0,0,.2.6c.9.4,3.6,1.6,8.9,1.6s8-1.1,8.9-1.6C33.1,43.8,33.2,43.6,33.1,43.4Z" transform="translate(12.56)" style="fill:#00b8f0;stroke:#45413c;stroke-linecap:round;stroke-linejoin:round"/><path d="M31.9,9.7c0-1-3.5-1.7-7.9-1.7s-7.9.8-7.9,1.7L14.8,25.9a9.2,9.2,0,0,0,18.4,0Z" transform="translate(12.56)" style="fill:#00b8f0"/><path d="M32.2,13.7l-.3-4c0-1-3.5-1.7-7.9-1.7s-7.9.8-7.9,1.7L14.8,25.9a9.63,9.63,0,0,0,1,4.2,34.49,34.49,0,0,0,9.9-7.3A43,43,0,0,0,32.2,13.7Z" transform="translate(12.56)" style="fill:#4acfff"/><ellipse cx="36.56" cy="9.7" rx="7.9" ry="1.7" style="fill:#00b8f0"/><path d="M31.9,9.7c0-1-3.5-1.7-7.9-1.7s-7.9.8-7.9,1.7L14.8,25.9a9.2,9.2,0,0,0,18.4,0Z" transform="translate(12.56)" style="fill:none;stroke:#45413c;stroke-linecap:round;stroke-linejoin:round"/><path d="M31.9,9.7c0,1-3.5,1.7-7.9,1.7s-7.9-.8-7.9-1.7" transform="translate(12.56)" style="fill:none;stroke:#45413c;stroke-linecap:round;stroke-linejoin:round"/><path d="M12.5,12.2a.88.88,0,0,1-1.3-.4,5.69,5.69,0,0,1,9.5-5.9.87.87,0,0,1-.2,1.3Z" transform="translate(12.56)" style="fill:#6dd627;stroke:#45413c;stroke-linecap:round;stroke-linejoin:round"/><path d="M17.9,16.2,17,25.8a7,7,0,1,0,14,0l-.9-9.6Z" transform="translate(12.56)" style="fill:#ff8a14"/><path d="M24,25.8a22,22,0,0,1-6.9-.9l-.1.9a7,7,0,1,0,14,0l-.1-.9A19.37,19.37,0,0,1,24,25.8Z" transform="translate(12.56)" style="fill:#ff6242"/><ellipse cx="36.56" cy="16.2" rx="6.1" ry="0.9" style="fill:#ff8a14"/><path d="M26.2,17.5h2.6V11l-2.6.3Z" transform="translate(12.56)" style="fill:#bf8df2;stroke:#45413c;stroke-linecap:round;stroke-linejoin:round"/><path d="M30.1,16.2c0,.5-2.7.9-6.1.9s-6.1-.4-6.1-.9L17,25.8a6.9,6.9,0,0,0,.8,3.2,31.72,31.72,0,0,0,8-6.3A42.14,42.14,0,0,0,30.2,17Z" transform="translate(12.56)" style="fill:#ffaa54"/><path d="M17.1,24.9l-.1.9a6.9,6.9,0,0,0,.8,3.2,35.9,35.9,0,0,0,4.7-3.2A16.6,16.6,0,0,1,17.1,24.9Z" transform="translate(12.56)" style="fill:#ff866e"/><path d="M29.8,6.3l3.4-4L31,.5,27.1,5.4a4.39,4.39,0,0,0-.9,2.7v3.2c1-.1,1.8-.2,2.6-.3V9A4.73,4.73,0,0,1,29.8,6.3Z" transform="translate(12.56)" style="fill:#9f5ae5;stroke:#45413c;stroke-linecap:round;stroke-linejoin:round"/><path d="M-6.57,38.94a3.22,3.22,0,0,1-1,1.83,2.91,2.91,0,0,1-1.87.63,2.91,2.91,0,0,1-1.63-.49,2.85,2.85,0,0,1-1-1c-.06-.13-.12-.26-.16-.37a2.18,2.18,0,0,1-.12-.46,16.28,16.28,0,0,1-.08-2,16.25,16.25,0,0,1,.08-2,2.53,2.53,0,0,1,.28-.82,2.9,2.9,0,0,1,1-1,2.64,2.64,0,0,1,1.62-.48,2.75,2.75,0,0,1,2,.73,3.23,3.23,0,0,1,.95,1.79H-7.9a1.93,1.93,0,0,0-.56-.88,1.56,1.56,0,0,0-1-.35,1.5,1.5,0,0,0-.76.18,1.53,1.53,0,0,0-.53.44,1.41,1.41,0,0,0-.32.71,10.63,10.63,0,0,0-.09,1.72,10.48,10.48,0,0,0,.09,1.71,1.45,1.45,0,0,0,.32.72,1.5,1.5,0,0,0,.53.43,1.41,1.41,0,0,0,.76.19A1.68,1.68,0,0,0-7.9,38.94Z" transform="translate(12.56)" style="fill:#fff;stroke:#000;stroke-miterlimit:10;stroke-width:0.25px"/><path d="M-5.88,38.28a5.18,5.18,0,0,1,.16-1.48A2.11,2.11,0,0,1-5.23,36a2.13,2.13,0,0,1,.68-.54,2.45,2.45,0,0,1,1.1-.24,2.56,2.56,0,0,1,1.13.24,1.94,1.94,0,0,1,.66.55,2,2,0,0,1,.5.85A6,6,0,0,1-1,38.28a6,6,0,0,1-.14,1.47,2.16,2.16,0,0,1-.5.87,1.76,1.76,0,0,1-.28.26,1.21,1.21,0,0,1-.38.26,2.42,2.42,0,0,1-1.13.26,2.32,2.32,0,0,1-1.1-.26,2.44,2.44,0,0,1-.69-.52,2.38,2.38,0,0,1-.48-.87A5.06,5.06,0,0,1-5.88,38.28Zm3.68,0a5.38,5.38,0,0,0-.06-.95,1.21,1.21,0,0,0-.23-.5.91.91,0,0,0-.39-.33,1.26,1.26,0,0,0-.57-.12,1.34,1.34,0,0,0-.56.12,1,1,0,0,0-.39.33,1.35,1.35,0,0,0-.23.5,5.33,5.33,0,0,0-.06.94,5,5,0,0,0,.06.93,1.5,1.5,0,0,0,.23.53,1.37,1.37,0,0,0,.39.31,1.21,1.21,0,0,0,.56.13,1.14,1.14,0,0,0,.57-.13,1.14,1.14,0,0,0,.39-.31,1.34,1.34,0,0,0,.23-.53A5,5,0,0,0-2.2,38.29Z" transform="translate(12.56)" style="fill:#fff;stroke:#000;stroke-miterlimit:10;stroke-width:0.25px"/><path d="M4.75,40.35a3.25,3.25,0,0,1-.91.74,2.47,2.47,0,0,1-1.21.31A2.61,2.61,0,0,1,.8,40.67,3.11,3.11,0,0,1,0,38.29a3.18,3.18,0,0,1,.83-2.4,2.57,2.57,0,0,1,1.84-.72,2.69,2.69,0,0,1,1.2.29,3.06,3.06,0,0,1,.91.77l-.87.8a1.49,1.49,0,0,0-1.2-.64c-1,0-1.52.62-1.53,1.9s.52,1.91,1.53,1.89a1.45,1.45,0,0,0,1.2-.63Z" transform="translate(12.56)" style="fill:#fff;stroke:#000;stroke-miterlimit:10;stroke-width:0.25px"/><path d="M5.74,32.79H6.93V38.1H7l2.27-2.85h1.41l-2,2.37,2.31,3.71H9.42L7.86,38.49l-.93,1.09v1.75H5.74Z" transform="translate(12.56)" style="fill:#fff;stroke:#000;stroke-miterlimit:10;stroke-width:0.25px"/><path d="M12,33.4h1.18v1.85h.87v.93h-.87v3.55q0,.47.42.45h.45v1.15h-.62a1.35,1.35,0,0,1-1-.4,1.43,1.43,0,0,1-.41-1.1V36.18h-.59v-.93H12Z" transform="translate(12.56)" style="fill:#fff;stroke:#000;stroke-miterlimit:10;stroke-width:0.25px"/><path d="M18.4,40.79h0a1,1,0,0,1-.51.46,2.42,2.42,0,0,1-.95.15,2.15,2.15,0,0,1-1.52-.54,1.71,1.71,0,0,1-.56-1.32,1.74,1.74,0,0,1,.49-1.27,1.9,1.9,0,0,1,1.43-.52H18.4V37.1c0-.53-.4-.8-1.21-.78a2.2,2.2,0,0,0-.7.09.86.86,0,0,0-.42.38l-.93-.73a2.27,2.27,0,0,1,2-.89,3.07,3.07,0,0,1,1.78.44,1.79,1.79,0,0,1,.67,1.57v4.15H18.4Zm0-2H17c-.69,0-1,.26-1,.73a.65.65,0,0,0,.27.53,1.22,1.22,0,0,0,.85.24,2,2,0,0,0,1.05-.18c.19-.13.28-.42.28-.88Z" transform="translate(12.56)" style="fill:#fff;stroke:#000;stroke-miterlimit:10;stroke-width:0.25px"/><path d="M21.34,32.79h1.18V34H21.34Zm0,2.46h1.18v6.08H21.34Z" transform="translate(12.56)" style="fill:#fff;stroke:#000;stroke-miterlimit:10;stroke-width:0.25px"/><path d="M24.18,32.79h1.19v7c0,.27.14.41.44.41h.41v1.15h-.53A1.69,1.69,0,0,1,24.62,41a1.37,1.37,0,0,1-.44-1.14Z" transform="translate(12.56)" style="fill:#fff;stroke:#000;stroke-miterlimit:10;stroke-width:0.25px"/><path d="M30.26,32.79h1.18l2.37,5.57,2.33-5.57h1.18v8.54H36.07V36h0l-1.73,4.11h-1L31.53,36h0v5.33H30.26Z" transform="translate(12.56)" style="fill:#fff;stroke:#000;stroke-miterlimit:10;stroke-width:0.25px"/><path d="M42.34,40.79h0a1,1,0,0,1-.51.46,2.4,2.4,0,0,1-.94.15,2.11,2.11,0,0,1-1.52-.54,1.69,1.69,0,0,1-.57-1.32,1.78,1.78,0,0,1,.49-1.27,1.9,1.9,0,0,1,1.43-.52h1.64V37.1c0-.53-.39-.8-1.21-.78a2.2,2.2,0,0,0-.7.09,1,1,0,0,0-.42.38l-.93-.73a2.28,2.28,0,0,1,2-.89,3.05,3.05,0,0,1,1.78.44,1.76,1.76,0,0,1,.67,1.57v4.15H42.34Zm0-2H40.92c-.69,0-1,.26-1,.73a.67.67,0,0,0,.26.53,1.23,1.23,0,0,0,.85.24,2,2,0,0,0,1.05-.18c.19-.13.28-.42.28-.88Z" transform="translate(12.56)" style="fill:#fff;stroke:#000;stroke-miterlimit:10;stroke-width:0.25px"/><path d="M45.25,32.79h1.18V38.1h0l2.27-2.85h1.42l-2,2.37,2.31,3.71H48.93l-1.57-2.84-.93,1.09v1.75H45.25Z" transform="translate(12.56)" style="fill:#fff;stroke:#000;stroke-miterlimit:10;stroke-width:0.25px"/><path d="M52.22,38.75a1.44,1.44,0,0,0,.41,1.12,1.35,1.35,0,0,0,1,.38,1.76,1.76,0,0,0,1.29-.59l.85.76a2.74,2.74,0,0,1-2.12,1,3.14,3.14,0,0,1-.91-.14,2.13,2.13,0,0,1-.43-.21,2.07,2.07,0,0,1-.41-.27,2.48,2.48,0,0,1-.61-1A3.86,3.86,0,0,1,51,38.31a4.32,4.32,0,0,1,.22-1.5,2.46,2.46,0,0,1,.56-1,2.22,2.22,0,0,1,.79-.52,2.37,2.37,0,0,1,.85-.16,2.4,2.4,0,0,1,1.71.69,2.54,2.54,0,0,1,.72,1.89v1Zm2.49-1a1.61,1.61,0,0,0-.37-1.08,1.27,1.27,0,0,0-1.75,0,1.61,1.61,0,0,0-.37,1.08Z" transform="translate(12.56)" style="fill:#fff;stroke:#000;stroke-miterlimit:10;stroke-width:0.25px"/><path d="M57.33,35.25h1.18v.64h0a1.93,1.93,0,0,1,2.77-.25l-.87,1.06a1.19,1.19,0,0,0-.78-.31,1,1,0,0,0-.77.31,1.18,1.18,0,0,0-.38,1v3.67H57.33Z" transform="translate(12.56)" style="fill:#fff;stroke:#000;stroke-miterlimit:10;stroke-width:0.25px"/><ellipse cx="36.56" cy="45.3" rx="11.2" ry="1.7" style="fill:#45413c;opacity:0.15000000596046448;isolation:isolate"/></svg>